<svg xmlns="http://www.w3.org/2000/svg" height="1.1em" fill="none" class="text-2xl" viewBox="0 0 251 241"><path fill="#db422c" d="M78.115 227.039c-6.349 3.467-12.69 6.948-19.052 10.39-1.604.868-3.215 1.785-4.927 2.379-4.49 1.56-7.313-.411-6.902-5.194.468-5.446 1.436-10.855 2.328-16.257 2.73-16.531 5.756-33.018 8.152-49.597.686-4.746-.377-9.745-.247-15.006 2.98.255 5.571.889 8.068 1.844-.063.765-.033 1.208-.069 1.888-.002.589.194.84.579 1.365 3.056 1.194 6.054 2.013 9.057 3.21 1.005 9.04 2.543 17.681 2.877 26.369.494 12.852.133 25.738.136 38.609"/><path fill="#457cbd" d="M202.117 213.186c1.224 5.816 2.755 11.592 3.528 17.467.329 2.498-.13 6.072-1.722 7.534-1.222 1.123-5.122.384-7.245-.688-19.02-9.611-37.877-19.544-56.869-29.21-3.211-1.635-6.84-2.448-10.815-3.937.769-3.74 2.078-7.184 3.752-10.691 2.325-.876 4.285-1.69 6.617-2.506 3.599-.23 7.087-1.369 10.011-.534 17.362 4.962 34.592 10.381 51.867 15.647.282 1.413.563 2.826.661 4.698-.036.721.111.984.258 1.247 0 0-.025.014-.052.248s.009.725.009.725"/><path fill="#69afdb" d="M223.363 84.045c7.256.804 14.551 1.372 21.744 2.558 2.141.353 5.315 2.172 5.65 3.804.422 2.063-.978 5.215-2.623 6.873-13.817 13.926-27.87 27.617-42.246 41.715-.598.488-.749.682-.846.917 0 0-.095.129-.319.267-.427.29-.57.486-.654.726-.614.593-1.228 1.187-2.215 2.102-.571.47-.718.658-.814.886 0 0-.104.138-.333.288-.43.315-.575.519-.663.763 0 0-.074.118-.302.259-.446.31-.59.528-.659.796 0 0-.323.258-.889.297a61.3 61.3 0 0 1-8.905-6.5c-.318-2.109-.614-3.832-.564-5.595 4.017-5.648 7.578-11.331 11.38-16.848 7.683-11.15 15.498-22.21 23.258-33.308"/><path fill="#ec9409" d="M18.067 113.273c-5.337-5.004-10.825-9.861-15.91-15.108C.77 96.735-.438 93.74.152 92.17c.625-1.664 3.366-3.217 5.395-3.559 13.454-2.267 26.99-4.051 40.451-6.28 11.127-1.842 22.189-4.079 33.89-5.975.782 1.625.956 3.083.785 4.593-1.407.795-2.47 1.54-3.888 2.354-.144 2.45.068 4.831.222 7.548-1.638 1.387-3.092 2.779-4.825 3.435-10.49 3.977-21.008 7.887-31.589 11.615-7.45 2.625-15.014 4.926-22.527 7.372"/><path fill="#f9d731" d="M98.763 36.8c.198-1.244.396-2.487.976-4.154.437-1.077.491-1.731.545-2.385.197-.97.364-1.948.596-2.91 1.578-6.563 2.993-7.469 9.872-5.743 2.847-5.753 5.588-11.756 8.792-17.5 1.019-1.826 3.329-4.182 4.945-4.106 1.971.092 4.65 2.074 5.618 3.96 10.691 20.827 21.109 41.794 31.594 63.283-1.867 1.707-3.727 2.855-5.865 3.784-3.354-2.448-6.244-1.58-8.973.422-2.006 1.473-3.897 3.104-6.195 4.667-1.065.061-1.774.12-2.795.018-4.553-3.025-9.072-5.555-12.979-8.819-9.391-7.847-18.494-16.039-27.696-24.42.002-.762-.015-1.198-.032-1.633.102-.432.204-.863.728-1.73.57-1.201.72-1.968.869-2.734m33.556-24.27c-2.664-3.559-2.345-9.181-7.607-11.202-1.188 1.13-2.627 1.964-3.282 3.21-3.004 5.714-5.876 11.504-8.556 17.375-.386.844.23 2.506.896 3.411 4.789 6.509 9.639 12.976 14.61 19.347a1006 1006 0 0 0 17.115 21.34c.833 1.01 2.382 1.66 3.718 1.972 1.948.455 4.01.4 6.011.655 2.7.346 4.33-.299 3.413-3.452-.323-1.114-.659-2.249-1.179-3.277a10276 10276 0 0 0-25.139-49.38"/><path fill="#668dc9" d="M201.674 206.178c-17.708-5.176-34.938-10.595-52.3-15.557-2.924-.836-6.412.304-9.983.147.424-3.426 1.192-6.469 2.257-9.671 2.766-1.46 5.131-3.56 7.725-3.899a109 109 0 0 1 17.94-.861c9.695.35 19.389 1.07 29.039 2.067 2.791.288 6.431.08 7.796 3.82 1.764 4.301 3.546 8.594 5.289 12.903 3.824 9.449 2.652 11.192-7.763 11.051"/><path fill="#85bce2" d="M223.285 83.678c-7.682 11.465-15.497 22.525-23.18 33.675-3.802 5.517-7.363 11.2-11.718 16.733-2.869-2.009-5.053-3.944-7.239-6.341.303-4.889-.405-9.7 1.099-13.673 5.19-13.703 11.153-27.112 16.821-40.633.767-.037 1.535-.073 2.786.064.75.066 1.017-.042 1.284-.15 4.804-.353 9.603-.893 14.413-1.017 7.404-.19 8.918 2.22 6.049 9.066-.247.588-.268 1.27-.315 2.276"/><path fill="#eb6445" d="M78.416 227.221c-.304-13.053.057-25.939-.437-38.791-.334-8.688-1.872-17.329-2.505-26.508 2.085-1.29 3.804-2.064 5.873-2.764 5.088 3.048 9.062 6.727 10.379 12.397 1.636 7.044 2.948 14.162 4.525 21.22 1.902 8.512 3.935 16.996 5.912 25.492-.237.249-.474.497-1.155.896-.696.303-.865.519-.953.799 0 0-.038.16-.277.228-.443.183-.584.352-.661.574-3.27 2.782-6.481 5.639-9.826 8.328-5.184 4.17-6.881 3.854-10.875-1.871"/><path fill="#f4a82e" d="M18.08 113.664c7.5-2.837 15.065-5.138 22.514-7.763 10.581-3.728 21.1-7.638 31.59-11.615 1.732-.656 3.186-2.048 5.055-3.482.286-.382.755-.352.772.032.68 2.904.208 6.143 4.009 7.03-2.868 3.806-5.175 8.075-8.73 10.549-8.144 5.665-16.848 10.536-25.422 15.563-4.524 2.652-9.254 4.952-13.891 7.411 0 0 0-.116-.077-.342-.44-.324-.803-.421-1.165-.519-.472-.208-.943-.416-1.67-1.118-.63-.607-1.002-.721-1.374-.834-2.39-1.413-4.717-2.945-7.18-4.213-4.376-2.251-6.528-5.336-4.43-10.699"/><path fill="#9fc9e9" d="M199.066 73c-5.666 13.96-11.629 27.369-16.819 41.072-1.504 3.973-.796 8.784-1.459 13.689-.834.51-1.312.542-2.07.404-2.369-2.121-4.457-4.073-6.556-6.418-.761-6.358-2.654-12.447-2.019-18.26 1.251-11.446 3.905-22.738 5.979-34.094 4.929-1.196 9.856-2.397 14.787-3.586 6.47-1.56 8.253-.081 8.157 7.192"/><path fill="#87a2d8" d="M204.154 181.83c-1.371-3.346-5.011-3.138-7.802-3.426-9.65-.997-19.344-1.717-29.039-2.066a108.7 108.7 0 0 0-17.94.86c-2.594.339-4.959 2.439-7.993 3.79-.788-.252-1.011-.556-1.076-1.156 2.043-3.735 3.926-7.174 6.16-10.639 6.389-5.298 13.307-7.97 21.416-8.502 10.33-.678 20.605-2.194 30.904-3.349 2.474 3.862 4.971 7.71 7.416 11.591 2.18 3.462 3.631 6.805-1.159 9.548-.646.37-.604 1.94-.887 3.349"/><path fill="#f48866" d="M102.516 218.295c-2.33-8.524-4.363-17.007-6.265-25.52-1.577-7.058-2.89-14.176-4.525-21.22-1.317-5.67-5.291-9.349-10.205-12.65.147-.576.47-.827 1.198-.966 4.725 1.234 9.044 2.356 13.415 3.812 2.54 3.132 5.777 5.559 7.385 8.796 5.85 11.773 11.154 23.818 16.664 35.76q-3.601 4.674-7.199 9.349c-2.687 3.493-5.848 5.178-10.468 2.639"/><path fill="#fbdf6b" d="M97.18 43.226c9.219 8.052 18.323 16.244 27.714 24.091 3.907 3.264 8.426 5.794 12.972 9.191.304 1.282.303 2.03.046 3.026-2.303.85-4.351 1.451-6.835 1.95-7.829-.97-15.171-1.898-21.061-7.229-1.055-.954-2.74-1.173-3.989-1.961-6.307-3.977-12.566-8.03-18.842-12.055.065-4.001.13-8.003.572-12.56.621-1.296.865-2.036 1.108-2.776 1.488-1.133 2.976-2.266 4.927-3.014 1.437.702 2.412 1.02 3.388 1.337"/><path fill="#f9bc64" d="M34.037 131.8c4.577-2.87 9.307-5.171 13.83-7.822 8.575-5.027 17.28-9.898 25.422-15.563 3.556-2.474 5.863-6.743 9.054-10.515.644-.033.97.251 1.231.834-.082.913-.1 1.528-.216 2.549.151 1.917.401 3.428.674 5.334-.03 1.447-.084 2.499-.475 3.645-2.295 3.471-3.757 7.298-6.321 10.127-4.223 4.659-9.067 8.777-13.821 12.925-4.463 3.894-9.15 7.532-13.738 11.283-2.953-.903-5.909-1.8-8.86-2.711-4.763-1.47-7.67-4.235-6.78-10.086"/><path fill="#b9d6ef" d="M176.08 69.007c-2.032 11.742-4.686 23.034-5.937 34.48-.635 5.813 1.258 11.902 1.691 18.167-3.126-1.589-5.936-3.478-8.763-5.723-5.163-6.638-6.177-13.953-6.04-21.825.133-7.612-.577-15.238-.917-22.858 1.86-1.148 3.72-2.296 5.772-3.7 1.98-.98 3.777-1.683 5.554-2.431 4.651-1.958 6.504-1.21 8.64 3.89"/><path fill="#fce596" d="M86.856 60.41c6.605 3.855 12.864 7.907 19.171 11.884 1.249.788 2.934 1.007 3.989 1.961 5.89 5.33 13.232 6.26 20.97 7.544-1.36 1.779-3.065 3.139-5.147 4.512-4.318.983-8.438 3.197-12.164 2.663-7.898-1.132-15.591-3.694-23.367-5.676-3.099-.79-6.193-1.6-9.29-2.4-.173-1.459-.346-2.917-.761-4.663-.217-1.941-.015-3.615-.197-5.246-.894-8.025-.814-8.209 6.796-10.579"/><path fill="#a7bae6" d="M198.899 156.954c-10.414 1.543-20.689 3.059-31.019 3.737-8.109.532-15.027 3.204-21.433 8.105.724-3.743 1.816-7.114 3.242-10.544 6.091-5.695 13.26-8.302 20.876-10.489 6.443-1.851 12.512-5.005 18.746-7.582 2.772 2.051 5.545 4.102 8.706 6.222.592 3.433.794 6.797.882 10.551"/><path fill="#fbcc8b" d="M49.795 144.966c4.47-4.12 9.157-7.758 13.62-11.652 4.754-4.148 9.598-8.266 13.82-12.925 2.565-2.829 4.027-6.656 6.485-9.757 1.125 3.383 1.75 6.489 2.096 9.853-1.525 3.944-2.138 8.024-4.14 11.24-5.014 8.059-10.657 15.727-16.048 23.551-2.59-.633-5.18-1.267-8.173-1.952-5.847.06-7.588-3.16-7.66-8.358"/><path fill="#f6a589" d="M120.595 206.271c-5.922-11.906-11.226-23.951-17.076-35.724-1.608-3.237-4.845-5.664-6.977-8.906 3.099-.055 5.84.334 8.745 1.011 4.569 4.68 9.245 8.836 13.309 13.522 4.868 5.613 9.214 11.68 13.786 17.55-1.31 3.444-2.619 6.888-3.828 10.579-2.449.808-4.998 1.369-7.959 1.968"/><path fill="#fce596" d="M97.198 42.898c-.993.01-1.969-.307-3.063-.91.665-.431 1.448-.576 2.631-.723.417.434.434.87.432 1.633M88.58 45.04c.042.603-.201 1.343-.734 2.192-.043-.612.202-1.333.734-2.191"/><path fill="#fbdf6b" d="M100.007 30.42c.223.495.169 1.15-.13 1.875-.212-.525-.18-1.121.13-1.876M98.485 36.958c.129.608-.02 1.375-.446 2.277-.128-.615.02-1.367.446-2.277"/><path fill="#f48866" d="M99.317 220.785c-.123-.243.018-.411.378-.587.221.252.109.474-.378.587"/><path fill="#668dc9" d="M202.21 211.957c-.197-.007-.344-.27-.331-.63.234.06.308.217.331.63M202.25 213.091c-.133.095-.169-.397-.13-.64.379-.059.453.204.13.64"/><path fill="#f48866" d="M100.283 219.944c-.14-.262.029-.478.477-.697.21.279.061.527-.477.697"/><path fill="#a7bae6" d="M201.249 143.88c-.113-.215.034-.403.39-.636.219.236.106.471-.39.636"/><path fill="#f9bc64" d="M29.843 128.807c.22-.118.593-.004 1.05.408-.244.14-.571-.018-1.05-.408M32.883 130.755c.214-.129.577-.032 1.036.347-.232.148-.56.014-1.036-.347"/><path fill="#9fc9e9" d="M202.885 73.319c-.014.142-.281.25-.648.22.065-.178.23-.216.648-.22"/><path fill="#a7bae6" d="M205.253 139.894c-.114-.217.037-.411.406-.644.212.238.092.475-.406.644M204.279 140.881c-.126-.216.017-.412.379-.655.219.228.11.469-.379.655M199.297 145.951c-.145-.22-.001-.438.389-.707.22.229.104.482-.389.707M200.257 144.911c-.125-.211.02-.415.382-.677.225.227.115.474-.382.677"/><path fill="#fdddb2" d="M65.535 155.598c5.484-8.146 11.127-15.814 16.142-23.873 2.001-3.216 2.614-7.296 4.473-11.106 6.674 7.315 5.35 15.082 1.812 23.064-2.056 4.638-3.776 9.424-5.648 14.144-.323.251-.646.502-1.143 1.005-1.893 1.026-3.612 1.8-5.703 2.712-3.37-.68-6.367-1.499-9.409-2.926-.099-.928-.26-1.182-.526-1.369-.03-.443-.061-.886.002-1.651"/><path fill="#fbcc8b" d="M65.466 157.486c.334-.05.495.204.535.757-.341.083-.537-.168-.535-.757"/><path fill="#f9c5b0" d="M132.746 193.661c-4.936-5.807-9.282-11.874-14.15-17.487-4.064-4.686-8.74-8.842-13.051-13.838 2.529-.629 5.034-1.034 7.385-.602 6.135 1.127 11.356 3.982 15.805 8.54 3.497 3.583 7.585 6.591 11.411 9.854.223.304.446.608.937 1.02-.5 3.151-1.268 6.194-2.063 9.623-1.988 1.2-3.949 2.014-6.274 2.89"/><path fill="#c4cff1" d="M189.289 139.796c-6.212 2.962-12.281 6.116-18.724 7.967-7.616 2.187-14.785 4.794-20.953 10.094.887-8.345 5.182-14.189 12.311-18.007 4.498-2.409 9.068-4.705 13.421-7.355 1.505-.916 2.452-2.747 3.654-4.16.478-.032.956-.064 1.793-.112 2.543 1.919 4.727 3.854 7.25 5.903.634 1.838.93 3.561 1.248 5.67"/><path fill="#feefbc" d="M80.674 80.949c3.44.75 6.535 1.559 9.634 2.349 7.776 1.982 15.469 4.544 23.367 5.676 3.726.534 7.846-1.68 12.103-2.328-6.054 8.935-13.8 14.39-25.309 12.689-5.533-.818-11.215-.631-16.83-.9-.326-.284-.652-.568-1.301-.886-4.12-.57-3.647-3.81-4.282-7.127-.286-2.927-.6-5.057-.916-7.187 1.064-.746 2.127-1.49 3.534-2.286"/><path fill="#fce596" d="M76.786 83.303c.67 2.062.984 4.192 1.254 6.736-.046.413-.515.383-.745.43-.441-2.335-.653-4.716-.51-7.166"/><path fill="#f7cd02" d="M132.52 12.843a16019 16019 0 0 1 24.938 49.066c.52 1.029.856 2.163 1.179 3.277.917 3.153-.713 3.798-3.413 3.452-2.001-.255-4.063-.2-6.011-.655-1.336-.312-2.885-.962-3.718-1.973a1006 1006 0 0 1-17.115-21.339c-4.971-6.37-9.821-12.838-14.61-19.347-.666-.905-1.282-2.567-.896-3.41 2.68-5.872 5.552-11.662 8.556-17.376.655-1.246 2.094-2.08 3.282-3.21 5.262 2.02 4.943 7.643 7.808 11.515"/><path fill="#d2e4f4" d="M155.836 71.03c.618 7.838 1.328 15.464 1.195 23.076-.137 7.872.877 15.187 5.682 21.766-9.131-2.522-14.412-8.643-16.497-17.458-1.321-5.585-2.034-11.312-3.282-16.918-.267-1.201-1.664-2.15-2.479-3.494.231-.813.4-1.35.569-1.887 1.942-1.56 3.833-3.191 5.839-4.664 2.729-2.002 5.619-2.87 8.973-.421"/><path fill="#fce596" d="M140.668 76.118c.187.534.018 1.07-.454 2.093-.883.681-1.465.878-2.046 1.074.001-.748.002-1.495.01-2.615.716-.432 1.425-.49 2.49-.552"/><path fill="#fbcc8b" d="M83.358 101.283c.349 1.118.6 2.642.75 4.553-.349-1.125-.599-2.636-.75-4.553"/></svg>